<svg width="50" height="50" viewBox="0 0 50 50" fill="none" xmlns="http://www.w3.org/2000/svg">
<path d="M10.3971 20H22.3971" stroke="#1E1E1E" stroke-width="2"/>
<path d="M10.3971 25H22.3971" stroke="#1E1E1E" stroke-width="2"/>
<path d="M10.3971 30H22.3971" stroke="#1E1E1E" stroke-width="2"/>
<path d="M23.4 17.9367C23.4 16.5031 24.5797 15.2496 26.1034 15.4C31.065 15.8914 35.6618 18.226 38.9853 21.9426C40.0108 23.0859 39.6916 24.7831 38.5263 25.6274L38.1209 25.9216L37.7731 25.4041L37.7654 25.3935C34.7083 21.1701 29.7346 18.4216 24.1187 18.4216H23.4V17.9367ZM36.5943 26.2263L36.9566 26.7659L33.174 29.5115L32.9804 29.6552V31.6696C32.9804 31.9238 32.8795 32.1676 32.6997 32.3473C32.52 32.527 32.2763 32.628 32.0221 32.628C31.7679 32.628 31.5242 32.527 31.3445 32.3473C31.1647 32.1676 31.0638 31.9238 31.0638 31.6696V31.6121C31.0484 31.4915 30.9878 31.3812 30.8942 31.3036C30.8006 31.2261 30.681 31.187 30.5596 31.1943C30.4382 31.2016 30.3242 31.2548 30.2406 31.343C30.1569 31.4313 30.11 31.5481 30.1093 31.6696V33.1081C30.1093 33.354 30.0148 33.5905 29.8454 33.7686C29.6759 33.9468 29.4445 34.053 29.1989 34.0654C28.9533 34.0777 28.7124 33.9951 28.526 33.8348C28.3396 33.6744 28.2219 33.4486 28.1974 33.2039L26.8174 34.2006C25.3904 35.2299 23.3961 34.2111 23.3971 32.4507L23.4 19.8582H24.1187C29.2496 19.8582 33.7941 22.3661 36.5943 26.2263ZM27.2343 24.003C27.4884 24.003 27.7322 23.902 27.9119 23.7223C28.0916 23.5426 28.1926 23.2988 28.1926 23.0446C28.1926 22.7905 28.0916 22.5467 27.9119 22.367C27.7322 22.1873 27.4884 22.0863 27.2343 22.0863C26.9801 22.0863 26.7363 22.1873 26.5566 22.367C26.3769 22.5467 26.2759 22.7905 26.2759 23.0446C26.2759 23.2988 26.3769 23.5426 26.5566 23.7223C26.7363 23.902 26.9801 24.003 27.2343 24.003ZM31.0676 26.8761C31.3218 26.8761 31.5655 26.7751 31.7452 26.5954C31.925 26.4156 32.0259 26.1719 32.0259 25.9177C32.0259 25.6636 31.925 25.4198 31.7452 25.2401C31.5655 25.0604 31.3218 24.9594 31.0676 24.9594C30.8134 24.9594 30.5697 25.0604 30.39 25.2401C30.2102 25.4198 30.1093 25.6636 30.1093 25.9177C30.1093 26.1719 30.2102 26.4156 30.39 26.5954C30.5697 26.7751 30.8134 26.8761 31.0676 26.8761ZM27.2343 29.7491C27.4884 29.7491 27.7322 29.6482 27.9119 29.4685C28.0916 29.2887 28.1926 29.045 28.1926 28.7908C28.1926 28.5366 28.0916 28.2929 27.9119 28.1132C27.7322 27.9334 27.4884 27.8325 27.2343 27.8325C26.9801 27.8325 26.7363 27.9334 26.5566 28.1132C26.3769 28.2929 26.2759 28.5366 26.2759 28.7908C26.2759 29.045 26.3769 29.2887 26.5566 29.4685C26.7363 29.6482 26.9801 29.7491 27.2343 29.7491Z" fill="#1E1E1E"/>
</svg>
